<svg id="Layer_1" data-name="Layer 1" xmlns="http://www.w3.org/2000/svg" viewBox="0 0 813.7 122.28"><defs><style>.cls-1{fill:#223d68;}.cls-2{fill:#fff;}</style></defs><title>Artboard 4</title><rect class="cls-1" width="815" height="124"/><path class="cls-2" d="M30.23,30.46c0,12.15-4.51,18.86-12.43,18.86C10.82,49.32,6.09,42.78,6,31s5.17-18.58,12.43-18.58C25.94,12.37,30.23,19.07,30.23,30.46ZM10.82,31c0,9.29,2.86,14.57,7.26,14.57,5,0,7.31-5.77,7.31-14.9,0-8.8-2.25-14.57-7.26-14.57C13.9,16.11,10.82,21.27,10.82,31Z"/><path class="cls-2" d="M50.8,17.48h-.11l-6.21,3.35-.94-3.68L51.35,13h4.13V48.72H50.8Z"/><path class="cls-2" d="M97.88,30.46c0,12.15-4.51,18.86-12.43,18.86-7,0-11.71-6.54-11.82-18.37S78.8,12.37,86.06,12.37C93.59,12.37,97.88,19.07,97.88,30.46ZM78.47,31c0,9.29,2.86,14.57,7.26,14.57,5,0,7.31-5.77,7.31-14.9,0-8.8-2.25-14.57-7.26-14.57C81.55,16.11,78.47,21.27,78.47,31Z"/><path class="cls-2" d="M131.7,30.46c0,12.15-4.5,18.86-12.42,18.86-7,0-11.72-6.54-11.83-18.37s5.17-18.58,12.43-18.58C127.42,12.37,131.7,19.07,131.7,30.46ZM112.29,31c0,9.29,2.86,14.57,7.26,14.57,5,0,7.32-5.77,7.32-14.9,0-8.8-2.26-14.57-7.26-14.57C115.37,16.11,112.29,21.27,112.29,31Z"/><path class="cls-2" d="M152.28,17.48h-.11L146,20.83,145,17.15,152.83,13H157V48.72h-4.67Z"/><path class="cls-2" d="M199.35,30.46c0,12.15-4.51,18.86-12.43,18.86-7,0-11.71-6.54-11.82-18.37s5.17-18.58,12.43-18.58C195.06,12.37,199.35,19.07,199.35,30.46ZM179.94,31c0,9.29,2.86,14.57,7.26,14.57,5,0,7.31-5.77,7.31-14.9,0-8.8-2.25-14.57-7.26-14.57C183,16.11,179.94,21.27,179.94,31Z"/><path class="cls-2" d="M233.18,30.46c0,12.15-4.51,18.86-12.43,18.86-7,0-11.71-6.54-11.82-18.37s5.17-18.58,12.42-18.58C228.89,12.37,233.18,19.07,233.18,30.46ZM213.77,31c0,9.29,2.86,14.57,7.25,14.57,4.95,0,7.32-5.77,7.32-14.9,0-8.8-2.26-14.57-7.26-14.57C216.84,16.11,213.77,21.27,213.77,31Z"/><path class="cls-2" d="M267,30.46c0,12.15-4.51,18.86-12.43,18.86-7,0-11.71-6.54-11.82-18.37s5.17-18.58,12.43-18.58C262.71,12.37,267,19.07,267,30.46ZM247.59,31c0,9.29,2.86,14.57,7.26,14.57,5,0,7.31-5.77,7.31-14.9,0-8.8-2.25-14.57-7.26-14.57C250.67,16.11,247.59,21.27,247.59,31Z"/><path class="cls-2" d="M300.83,30.46c0,12.15-4.51,18.86-12.43,18.86-7,0-11.72-6.54-11.83-18.37S281.74,12.37,289,12.37C296.54,12.37,300.83,19.07,300.83,30.46ZM281.41,31c0,9.29,2.86,14.57,7.26,14.57,4.95,0,7.32-5.77,7.32-14.9,0-8.8-2.26-14.57-7.26-14.57C284.49,16.11,281.41,21.27,281.41,31Z"/><path class="cls-2" d="M321.4,17.48h-.11l-6.22,3.35-.93-3.68L322,13h4.12V48.72H321.4Z"/><path class="cls-2" d="M355.22,17.48h-.11l-6.21,3.35L348,17.15,355.77,13h4.13V48.72h-4.68Z"/><path class="cls-2" d="M402.3,30.46c0,12.15-4.51,18.86-12.43,18.86-7,0-11.71-6.54-11.82-18.37s5.17-18.58,12.43-18.58C398,12.37,402.3,19.07,402.3,30.46ZM382.89,31c0,9.29,2.86,14.57,7.26,14.57,5,0,7.31-5.77,7.31-14.9,0-8.8-2.25-14.57-7.26-14.57C386,16.11,382.89,21.27,382.89,31Z"/><path class="cls-2" d="M436.12,30.46c0,12.15-4.51,18.86-12.42,18.86-7,0-11.72-6.54-11.83-18.37S417,12.37,424.3,12.37C431.83,12.37,436.12,19.07,436.12,30.46ZM416.71,31c0,9.29,2.86,14.57,7.26,14.57,4.95,0,7.32-5.77,7.32-14.9,0-8.8-2.26-14.57-7.26-14.57C419.79,16.11,416.71,21.27,416.71,31Z"/><path class="cls-2" d="M456.7,17.48h-.12l-6.21,3.35-.93-3.68L457.25,13h4.12V48.72H456.7Z"/><path class="cls-2" d="M503.77,30.46c0,12.15-4.51,18.86-12.43,18.86-7,0-11.71-6.54-11.82-18.37S484.69,12.37,492,12.37C499.48,12.37,503.77,19.07,503.77,30.46ZM484.36,31c0,9.29,2.86,14.57,7.26,14.57,4.95,0,7.31-5.77,7.31-14.9,0-8.8-2.25-14.57-7.26-14.57C487.44,16.11,484.36,21.27,484.36,31Z"/><path class="cls-2" d="M524.34,17.48h-.11L518,20.83l-.94-3.68L524.89,13H529V48.72h-4.68Z"/><path class="cls-2" d="M571.42,30.46c0,12.15-4.51,18.86-12.43,18.86-7,0-11.71-6.54-11.82-18.37s5.17-18.58,12.43-18.58C567.13,12.37,571.42,19.07,571.42,30.46ZM552,31c0,9.29,2.86,14.57,7.26,14.57,5,0,7.31-5.77,7.31-14.9,0-8.8-2.25-14.57-7.26-14.57C555.09,16.11,552,21.27,552,31Z"/><path class="cls-2" d="M592,17.48h-.11l-6.21,3.35-.94-3.68L592.54,13h4.13V48.72H592Z"/><path class="cls-2" d="M625.82,17.48h-.11l-6.22,3.35-.93-3.68L626.37,13h4.12V48.72h-4.67Z"/><path class="cls-2" d="M672.89,30.46c0,12.15-4.51,18.86-12.43,18.86-7,0-11.71-6.54-11.82-18.37s5.17-18.58,12.43-18.58C668.6,12.37,672.89,19.07,672.89,30.46ZM653.48,31c0,9.29,2.86,14.57,7.26,14.57,5,0,7.31-5.77,7.31-14.9,0-8.8-2.25-14.57-7.26-14.57C656.56,16.11,653.48,21.27,653.48,31Z"/><path class="cls-2" d="M693.46,17.48h-.11l-6.21,3.35-.94-3.68L694,13h4.13V48.72h-4.68Z"/><path class="cls-2" d="M727.29,17.48h-.11L721,20.83,720,17.15,727.84,13H732V48.72h-4.67Z"/><path class="cls-2" d="M774.36,30.46c0,12.15-4.51,18.86-12.43,18.86-7,0-11.71-6.54-11.82-18.37s5.17-18.58,12.43-18.58C770.07,12.37,774.36,19.07,774.36,30.46ZM755,31c0,9.29,2.86,14.57,7.26,14.57,4.95,0,7.31-5.77,7.31-14.9,0-8.8-2.25-14.57-7.26-14.57C758,16.11,755,21.27,755,31Z"/><path class="cls-2" d="M808.19,30.46c0,12.15-4.51,18.86-12.43,18.86-7,0-11.71-6.54-11.82-18.37s5.17-18.58,12.42-18.58C803.9,12.37,808.19,19.07,808.19,30.46ZM788.78,31c0,9.29,2.85,14.57,7.25,14.57,5,0,7.32-5.77,7.32-14.9,0-8.8-2.26-14.57-7.26-14.57C791.85,16.11,788.78,21.27,788.78,31Z"/><path class="cls-2" d="M30.23,96.46c0,12.15-4.51,18.86-12.43,18.86-7,0-11.71-6.54-11.82-18.37,0-12,5.17-18.58,12.43-18.58C25.94,78.37,30.23,85.07,30.23,96.46ZM10.82,97c0,9.29,2.86,14.57,7.26,14.57,5,0,7.31-5.77,7.31-14.9,0-8.8-2.25-14.57-7.26-14.57C13.9,82.11,10.82,87.27,10.82,97Z"/><path class="cls-2" d="M50.8,83.48h-.11l-6.21,3.35-.94-3.68L51.35,79h4.13v35.75H50.8Z"/><path class="cls-2" d="M84.63,83.48h-.11L78.3,86.83l-.93-3.68L85.18,79H89.3v35.75H84.63Z"/><path class="cls-2" d="M131.7,96.46c0,12.15-4.5,18.86-12.42,18.86-7,0-11.72-6.54-11.83-18.37,0-12,5.17-18.58,12.43-18.58C127.42,78.37,131.7,85.07,131.7,96.46ZM112.29,97c0,9.29,2.86,14.57,7.26,14.57,5,0,7.32-5.77,7.32-14.9,0-8.8-2.26-14.57-7.26-14.57C115.37,82.11,112.29,87.27,112.29,97Z"/><path class="cls-2" d="M152.28,83.48h-.11L146,86.83,145,83.15,152.83,79H157v35.75h-4.67Z"/><path class="cls-2" d="M186.1,83.48H186l-6.21,3.35-.94-3.68L186.65,79h4.12v35.75H186.1Z"/><path class="cls-2" d="M233.18,96.46c0,12.15-4.51,18.86-12.43,18.86-7,0-11.71-6.54-11.82-18.37,0-12,5.17-18.58,12.42-18.58C228.89,78.37,233.18,85.07,233.18,96.46ZM213.77,97c0,9.29,2.86,14.57,7.25,14.57,4.95,0,7.32-5.77,7.32-14.9,0-8.8-2.26-14.57-7.26-14.57C216.84,82.11,213.77,87.27,213.77,97Z"/><path class="cls-2" d="M267,96.46c0,12.15-4.51,18.86-12.43,18.86-7,0-11.71-6.54-11.82-18.37,0-12,5.17-18.58,12.43-18.58C262.71,78.37,267,85.07,267,96.46ZM247.59,97c0,9.29,2.86,14.57,7.26,14.57,5,0,7.31-5.77,7.31-14.9,0-8.8-2.25-14.57-7.26-14.57C250.67,82.11,247.59,87.27,247.59,97Z"/><path class="cls-2" d="M300.83,96.46c0,12.15-4.51,18.86-12.43,18.86-7,0-11.72-6.54-11.83-18.37,0-12,5.17-18.58,12.43-18.58C296.54,78.37,300.83,85.07,300.83,96.46ZM281.41,97c0,9.29,2.86,14.57,7.26,14.57,4.95,0,7.32-5.77,7.32-14.9,0-8.8-2.26-14.57-7.26-14.57C284.49,82.11,281.41,87.27,281.41,97Z"/><path class="cls-2" d="M321.4,83.48h-.11l-6.22,3.35-.93-3.68L322,79h4.12v35.75H321.4Z"/><path class="cls-2" d="M355.22,83.48h-.11l-6.21,3.35L348,83.15,355.77,79h4.13v35.75h-4.68Z"/><path class="cls-2" d="M402.3,96.46c0,12.15-4.51,18.86-12.43,18.86-7,0-11.71-6.54-11.82-18.37,0-12,5.17-18.58,12.43-18.58C398,78.37,402.3,85.07,402.3,96.46ZM382.89,97c0,9.29,2.86,14.57,7.26,14.57,5,0,7.31-5.77,7.31-14.9,0-8.8-2.25-14.57-7.26-14.57C386,82.11,382.89,87.27,382.89,97Z"/><path class="cls-2" d="M422.87,83.48h-.11l-6.21,3.35-.94-3.68L423.42,79h4.12v35.75h-4.67Z"/><path class="cls-2" d="M456.7,83.48h-.12l-6.21,3.35-.93-3.68L457.25,79h4.12v35.75H456.7Z"/><path class="cls-2" d="M490.52,83.48h-.11l-6.21,3.35-.94-3.68L491.07,79h4.12v35.75h-4.67Z"/><path class="cls-2" d="M524.34,83.48h-.11L518,86.83l-.94-3.68L524.89,79H529v35.75h-4.68Z"/><path class="cls-2" d="M571.42,96.46c0,12.15-4.51,18.86-12.43,18.86-7,0-11.71-6.54-11.82-18.37,0-12,5.17-18.58,12.43-18.58C567.13,78.37,571.42,85.07,571.42,96.46ZM552,97c0,9.29,2.86,14.57,7.26,14.57,5,0,7.31-5.77,7.31-14.9,0-8.8-2.25-14.57-7.26-14.57C555.09,82.11,552,87.27,552,97Z"/><path class="cls-2" d="M605.24,96.46c0,12.15-4.51,18.86-12.42,18.86-7,0-11.72-6.54-11.83-18.37,0-12,5.17-18.58,12.43-18.58C601,78.37,605.24,85.07,605.24,96.46ZM585.83,97c0,9.29,2.86,14.57,7.26,14.57,4.95,0,7.32-5.77,7.32-14.9,0-8.8-2.26-14.57-7.26-14.57C588.91,82.11,585.83,87.27,585.83,97Z"/><path class="cls-2" d="M625.82,83.48h-.11l-6.22,3.35-.93-3.68L626.37,79h4.12v35.75h-4.67Z"/><path class="cls-2" d="M672.89,96.46c0,12.15-4.51,18.86-12.43,18.86-7,0-11.71-6.54-11.82-18.37,0-12,5.17-18.58,12.43-18.58C668.6,78.37,672.89,85.07,672.89,96.46ZM653.48,97c0,9.29,2.86,14.57,7.26,14.57,5,0,7.31-5.77,7.31-14.9,0-8.8-2.25-14.57-7.26-14.57C656.56,82.11,653.48,87.27,653.48,97Z"/><path class="cls-2" d="M706.72,96.46c0,12.15-4.51,18.86-12.43,18.86-7,0-11.72-6.54-11.83-18.37,0-12,5.17-18.58,12.43-18.58C702.43,78.37,706.72,85.07,706.72,96.46ZM687.3,97c0,9.29,2.86,14.57,7.26,14.57,5,0,7.32-5.77,7.32-14.9,0-8.8-2.26-14.57-7.26-14.57C690.38,82.11,687.3,87.27,687.3,97Z"/><path class="cls-2" d="M740.54,96.46c0,12.15-4.51,18.86-12.43,18.86-7,0-11.71-6.54-11.82-18.37,0-12,5.17-18.58,12.43-18.58C736.25,78.37,740.54,85.07,740.54,96.46ZM721.13,97c0,9.29,2.86,14.57,7.26,14.57,4.94,0,7.31-5.77,7.31-14.9,0-8.8-2.25-14.57-7.26-14.57C724.21,82.11,721.13,87.27,721.13,97Z"/><path class="cls-2" d="M774.36,96.46c0,12.15-4.51,18.86-12.43,18.86-7,0-11.71-6.54-11.82-18.37,0-12,5.17-18.58,12.43-18.58C770.07,78.37,774.36,85.07,774.36,96.46ZM755,97c0,9.29,2.86,14.57,7.26,14.57,4.95,0,7.31-5.77,7.31-14.9,0-8.8-2.25-14.57-7.26-14.57C758,82.11,755,87.27,755,97Z"/><path class="cls-2" d="M794.93,83.48h-.11l-6.21,3.35-.93-3.68,7.8-4.18h4.13v35.75h-4.68Z"/></svg>