<svg id="Layer_1" data-name="Layer 1" xmlns="http://www.w3.org/2000/svg" xmlns:xlink="http://www.w3.org/1999/xlink" viewBox="0 0 817 123" preserveAspectRatio="none"><defs><style>.cls-1{fill:none;}.cls-2{fill:#223d68;}.cls-3{fill:#fff;}.cls-4{clip-path:url(#clip-path);}.cls-5{stroke:#000;stroke-miterlimit:10;stroke-width:2px;}</style><clipPath id="clip-path"><polygon class="cls-1" points="816.88 -0.47 -0.12 123.53 816.88 123.53 816.88 -0.47"/></clipPath></defs><title>Artboard 1</title><g id="Layer_1-2" data-name="Layer 1"><rect class="cls-2" x="-0.12" y="-0.14" width="817" height="124"/><path class="cls-3" d="M31.11,30.32c0,12.15-4.51,18.86-12.43,18.86-7,0-11.71-6.54-11.82-18.37,0-12,5.16-18.59,12.42-18.59C26.82,12.22,31.11,18.93,31.11,30.32Zm-19.42.55c0,9.29,2.86,14.57,7.26,14.57,4.95,0,7.32-5.77,7.32-14.9C26.27,21.74,24,16,19,16,14.77,16,11.69,21.13,11.69,30.87Z"/><path class="cls-3" d="M51.68,17.34h-.11l-6.22,3.35L44.42,17l7.81-4.18h4.12V48.57H51.68Z"/><path class="cls-3" d="M98.76,30.32c0,12.15-4.51,18.86-12.43,18.86-7,0-11.72-6.54-11.83-18.37,0-12,5.17-18.59,12.43-18.59C94.47,12.22,98.76,18.93,98.76,30.32Zm-19.42.55c0,9.29,2.86,14.57,7.26,14.57,5,0,7.32-5.77,7.32-14.9,0-8.8-2.26-14.58-7.26-14.58C82.42,16,79.34,21.13,79.34,30.87Z"/><path class="cls-3" d="M132.58,30.32c0,12.15-4.51,18.86-12.43,18.86-7,0-11.71-6.54-11.82-18.37,0-12,5.17-18.59,12.43-18.59C128.29,12.22,132.58,18.93,132.58,30.32Zm-19.41.55c0,9.29,2.86,14.57,7.26,14.57,4.95,0,7.31-5.77,7.31-14.9,0-8.8-2.25-14.58-7.26-14.58C116.25,16,113.17,21.13,113.17,30.87Z"/><path class="cls-3" d="M153.15,17.34H153l-6.21,3.35-.9-3.69,7.81-4.18h4.13V48.57h-4.68Z"/><path class="cls-3" d="M200.23,30.32c0,12.15-4.51,18.86-12.43,18.86-7,0-11.71-6.54-11.82-18.37,0-12,5.17-18.59,12.43-18.59C195.94,12.22,200.23,18.93,200.23,30.32Zm-19.41.55c0,9.29,2.86,14.57,7.26,14.57,4.94,0,7.31-5.77,7.31-14.9,0-8.8-2.26-14.58-7.26-14.58-4.23,0-7.31,5.17-7.31,14.91Z"/><path class="cls-3" d="M234.05,30.32c0,12.15-4.51,18.86-12.42,18.86-7,0-11.72-6.54-11.83-18.37,0-12,5.17-18.59,12.43-18.59C229.76,12.22,234.05,18.93,234.05,30.32Zm-19.41.55c0,9.29,2.86,14.57,7.26,14.57,4.95,0,7.31-5.77,7.31-14.9C229.21,21.74,227,16,222,16,217.72,16,214.64,21.13,214.64,30.87Z"/><path class="cls-3" d="M267.88,30.32c0,12.15-4.51,18.86-12.43,18.86-7,0-11.71-6.54-11.82-18.37,0-12,5.17-18.59,12.42-18.59C263.59,12.22,267.88,18.93,267.88,30.32Zm-19.41.55c0,9.29,2.85,14.57,7.25,14.57,5,0,7.32-5.77,7.32-14.9,0-8.8-2.26-14.58-7.26-14.58C251.54,16,248.47,21.13,248.47,30.87Z"/><path class="cls-3" d="M301.7,30.32c0,12.15-4.51,18.86-12.43,18.86-7,0-11.71-6.54-11.82-18.37,0-12,5.17-18.59,12.43-18.59C297.41,12.22,301.7,18.93,301.7,30.32Zm-19.41.55c0,9.29,2.86,14.57,7.26,14.57,4.95,0,7.31-5.77,7.31-14.9,0-8.8-2.25-14.58-7.26-14.58C285.37,16,282.29,21.13,282.29,30.87Z"/><path class="cls-3" d="M322.27,17.34h-.11L316,20.69,315,17l7.81-4.18H327V48.57h-4.68Z"/><path class="cls-3" d="M356.1,17.34H356l-6.22,3.35L348.84,17l7.81-4.18h4.12V48.57H356.1Z"/><path class="cls-3" d="M403.17,30.32c0,12.15-4.5,18.86-12.42,18.86-7,0-11.72-6.54-11.83-18.37,0-12,5.17-18.59,12.43-18.59C398.89,12.22,403.17,18.93,403.17,30.32Zm-19.41.55c0,9.29,2.86,14.57,7.26,14.57,5,0,7.32-5.77,7.32-14.9,0-8.8-2.26-14.58-7.26-14.58C386.84,16,383.76,21.13,383.76,30.87Z"/><path class="cls-3" d="M437,30.32c0,12.15-4.51,18.86-12.43,18.86-7,0-11.71-6.54-11.82-18.37,0-12,5.17-18.59,12.43-18.59C432.71,12.22,437,18.93,437,30.32Zm-19.41.55c0,9.29,2.86,14.57,7.26,14.57,4.95,0,7.31-5.77,7.31-14.9,0-8.8-2.25-14.58-7.26-14.58C420.67,16,417.59,21.13,417.59,30.87Z"/><path class="cls-3" d="M457.57,17.34h-.11l-6.21,3.35L450.31,17l7.81-4.18h4.12V48.57h-4.67Z"/><path class="cls-3" d="M504.65,30.32c0,12.15-4.51,18.86-12.43,18.86-7,0-11.71-6.54-11.82-18.37,0-12,5.17-18.59,12.42-18.59C500.36,12.22,504.65,18.93,504.65,30.32Zm-19.41.55c0,9.29,2.86,14.57,7.25,14.57,4.95,0,7.32-5.77,7.32-14.9,0-8.8-2.26-14.58-7.26-14.58C488.32,16,485.24,21.13,485.24,30.87Z"/><path class="cls-3" d="M525.22,17.34h-.11l-6.21,3.35L518,17l7.81-4.18h4.12V48.57h-4.67Z"/><path class="cls-3" d="M572.3,30.32c0,12.15-4.51,18.86-12.43,18.86-7,0-11.72-6.54-11.83-18.37,0-12,5.17-18.59,12.43-18.59C568,12.22,572.3,18.93,572.3,30.32Zm-19.42.55c0,9.29,2.86,14.57,7.26,14.57,5,0,7.32-5.77,7.32-14.9,0-8.8-2.26-14.58-7.26-14.58C556,16,552.88,21.13,552.88,30.87Z"/><path class="cls-3" d="M592.87,17.34h-.11l-6.22,3.35L585.61,17l7.81-4.18h4.12V48.57h-4.67Z"/><path class="cls-3" d="M626.69,17.34h-.11l-6.21,3.35L619.43,17l7.81-4.18h4.12V48.57h-4.67Z"/><path class="cls-3" d="M673.77,30.32c0,12.15-4.51,18.86-12.43,18.86-7,0-11.71-6.54-11.82-18.37,0-12,5.17-18.59,12.42-18.59C669.48,12.22,673.77,18.93,673.77,30.32Zm-19.41.55c0,9.29,2.85,14.57,7.25,14.57,4.95,0,7.32-5.77,7.32-14.9,0-8.8-2.26-14.58-7.26-14.58-4.24,0-7.31,5.17-7.31,14.91Z"/><path class="cls-3" d="M694.34,17.34h-.11L688,20.69,687.08,17l7.81-4.18H699V48.57h-4.67Z"/><path class="cls-3" d="M728.16,17.34h-.11l-6.21,3.35L720.9,17l7.81-4.18h4.13V48.57h-4.68Z"/><path class="cls-3" d="M775.24,30.32c0,12.15-4.51,18.86-12.43,18.86-7,0-11.71-6.54-11.82-18.37,0-12,5.17-18.59,12.43-18.59C771,12.22,775.24,18.93,775.24,30.32Zm-19.41.55c0,9.29,2.86,14.57,7.26,14.57,4.94,0,7.31-5.77,7.31-14.9,0-8.8-2.25-14.58-7.26-14.58C758.91,16,755.83,21.13,755.83,30.87Z"/><path class="cls-3" d="M809.06,30.32c0,12.15-4.51,18.86-12.43,18.86-7,0-11.71-6.54-11.82-18.37,0-12,5.17-18.59,12.43-18.59C804.77,12.22,809.06,18.93,809.06,30.32Zm-19.41.55c0,9.29,2.86,14.57,7.26,14.57,5,0,7.31-5.77,7.31-14.9C804.22,21.74,802,16,797,16,792.73,16,789.65,21.13,789.65,30.87Z"/><path class="cls-3" d="M31.11,96.32c0,12.15-4.51,18.86-12.43,18.86-7,0-11.71-6.54-11.82-18.37,0-12,5.16-18.59,12.42-18.59C26.82,78.22,31.11,84.93,31.11,96.32Zm-19.42.55c0,9.29,2.86,14.57,7.26,14.57,4.95,0,7.32-5.77,7.32-14.9C26.27,87.74,24,82,19,82,14.77,82,11.69,87.13,11.69,96.87Z"/><path class="cls-3" d="M51.68,83.34h-.11l-6.22,3.35L44.42,83l7.81-4.18h4.12v35.74H51.68Z"/><path class="cls-3" d="M85.5,83.34h-.11l-6.21,3.35L78.24,83l7.81-4.18h4.13v35.74H85.5Z"/><path class="cls-3" d="M132.58,96.32c0,12.15-4.51,18.86-12.43,18.86-7,0-11.71-6.54-11.82-18.37,0-12,5.17-18.59,12.43-18.59C128.29,78.22,132.58,84.93,132.58,96.32Zm-19.41.55c0,9.29,2.86,14.57,7.26,14.57,4.95,0,7.31-5.77,7.31-14.9,0-8.8-2.25-14.58-7.26-14.58C116.25,82,113.17,87.13,113.17,96.87Z"/><path class="cls-3" d="M153.15,83.34H153l-6.21,3.35-.9-3.69,7.81-4.18h4.13v35.74h-4.68Z"/><path class="cls-3" d="M187,83.34h-.11l-6.22,3.35L179.72,83l7.81-4.18h4.12v35.74H187Z"/><path class="cls-3" d="M234.05,96.32c0,12.15-4.51,18.86-12.42,18.86-7,0-11.72-6.54-11.83-18.37,0-12,5.17-18.59,12.43-18.59C229.76,78.22,234.05,84.93,234.05,96.32Zm-19.41.55c0,9.29,2.86,14.57,7.26,14.57,4.95,0,7.31-5.77,7.31-14.9C229.21,87.74,227,82,222,82,217.72,82,214.64,87.13,214.64,96.87Z"/><path class="cls-3" d="M267.88,96.32c0,12.15-4.51,18.86-12.43,18.86-7,0-11.71-6.54-11.82-18.37,0-12,5.17-18.59,12.42-18.59C263.59,78.22,267.88,84.93,267.88,96.32Zm-19.41.55c0,9.29,2.85,14.57,7.25,14.57,5,0,7.32-5.77,7.32-14.9,0-8.8-2.26-14.58-7.26-14.58C251.54,82,248.47,87.13,248.47,96.87Z"/><path class="cls-3" d="M301.7,96.32c0,12.15-4.51,18.86-12.43,18.86-7,0-11.71-6.54-11.82-18.37,0-12,5.17-18.59,12.43-18.59C297.41,78.22,301.7,84.93,301.7,96.32Zm-19.41.55c0,9.29,2.86,14.57,7.26,14.57,4.95,0,7.31-5.77,7.31-14.9,0-8.8-2.25-14.58-7.26-14.58C285.37,82,282.29,87.13,282.29,96.87Z"/><path class="cls-3" d="M322.27,83.34h-.11L316,86.69,315,83l7.81-4.18H327v35.74h-4.68Z"/><path class="cls-3" d="M356.1,83.34H356l-6.22,3.35L348.84,83l7.81-4.18h4.12v35.74H356.1Z"/><path class="cls-3" d="M403.17,96.32c0,12.15-4.5,18.86-12.42,18.86-7,0-11.72-6.54-11.83-18.37,0-12,5.17-18.59,12.43-18.59C398.89,78.22,403.17,84.93,403.17,96.32Zm-19.41.55c0,9.29,2.86,14.57,7.26,14.57,5,0,7.32-5.77,7.32-14.9,0-8.8-2.26-14.58-7.26-14.58C386.84,82,383.76,87.13,383.76,96.87Z"/><path class="cls-3" d="M423.75,83.34h-.11l-6.22,3.35L416.49,83l7.81-4.18h4.12v35.74h-4.67Z"/><path class="cls-3" d="M457.57,83.34h-.11l-6.21,3.35L450.31,83l7.81-4.18h4.12v35.74h-4.67Z"/><path class="cls-3" d="M491.4,83.34h-.12l-6.21,3.35L484.14,83l7.8-4.18h4.13v35.74H491.4Z"/><path class="cls-3" d="M525.22,83.34h-.11l-6.21,3.35L518,83l7.81-4.18h4.12v35.74h-4.67Z"/><path class="cls-3" d="M572.3,96.32c0,12.15-4.51,18.86-12.43,18.86-7,0-11.72-6.54-11.83-18.37,0-12,5.17-18.59,12.43-18.59C568,78.22,572.3,84.93,572.3,96.32Zm-19.42.55c0,9.29,2.86,14.57,7.26,14.57,5,0,7.32-5.77,7.32-14.9,0-8.8-2.26-14.58-7.26-14.58C556,82,552.88,87.13,552.88,96.87Z"/><path class="cls-3" d="M606.12,96.32c0,12.15-4.51,18.86-12.43,18.86-7,0-11.71-6.54-11.82-18.37,0-12,5.17-18.59,12.43-18.59C601.83,78.22,606.12,84.93,606.12,96.32Zm-19.41.55c0,9.29,2.86,14.57,7.26,14.57,4.95,0,7.31-5.77,7.31-14.9C601.28,87.74,599,82,594,82,589.79,82,586.71,87.13,586.71,96.87Z"/><path class="cls-3" d="M626.69,83.34h-.11l-6.21,3.35L619.43,83l7.81-4.18h4.12v35.74h-4.67Z"/><path class="cls-3" d="M673.77,96.32c0,12.15-4.51,18.86-12.43,18.86-7,0-11.71-6.54-11.82-18.37,0-12,5.17-18.59,12.42-18.59C669.48,78.22,673.77,84.93,673.77,96.32Zm-19.41.55c0,9.29,2.85,14.57,7.25,14.57,4.95,0,7.32-5.77,7.32-14.9,0-8.8-2.26-14.58-7.26-14.58-4.24,0-7.31,5.17-7.31,14.91Z"/><path class="cls-3" d="M707.59,96.32c0,12.15-4.51,18.86-12.43,18.86-7,0-11.71-6.54-11.82-18.37,0-12,5.17-18.59,12.43-18.59C703.3,78.22,707.59,84.93,707.59,96.32Zm-19.41.55c0,9.29,2.86,14.57,7.26,14.57,4.95,0,7.31-5.77,7.31-14.9,0-8.8-2.25-14.58-7.26-14.58-4.23,0-7.31,5.17-7.31,14.91Z"/><path class="cls-3" d="M741.41,96.32c0,12.15-4.51,18.86-12.42,18.86-7,0-11.72-6.54-11.83-18.37,0-12,5.17-18.59,12.43-18.59C737.13,78.22,741.41,84.93,741.41,96.32ZM722,96.87c0,9.29,2.86,14.57,7.26,14.57,5,0,7.32-5.77,7.32-14.9,0-8.8-2.26-14.58-7.26-14.58C725.08,82,722,87.13,722,96.87Z"/><path class="cls-3" d="M775.24,96.32c0,12.15-4.51,18.86-12.43,18.86-7,0-11.71-6.54-11.82-18.37,0-12,5.17-18.59,12.43-18.59C771,78.22,775.24,84.93,775.24,96.32Zm-19.41.55c0,9.29,2.86,14.57,7.26,14.57,4.94,0,7.31-5.77,7.31-14.9,0-8.8-2.25-14.58-7.26-14.58C758.91,82,755.83,87.13,755.83,96.87Z"/><path class="cls-3" d="M795.81,83.34h-.11l-6.21,3.35L788.55,83l7.81-4.18h4.12v35.74h-4.67Z"/></g><g id="Layer_2" data-name="Layer 2"><g class="cls-4"><rect class="cls-3" x="-0.12" y="-0.47" width="817" height="124"/><ellipse class="cls-2" cx="771.69" cy="76.8" rx="10.13" ry="10.27"/><ellipse class="cls-3" cx="771.69" cy="76.8" rx="9.43" ry="9.56"/><ellipse class="cls-2" cx="771.69" cy="76.8" rx="3.14" ry="3.19"/><ellipse class="cls-2" cx="801.74" cy="76.8" rx="10.13" ry="10.27"/><ellipse class="cls-3" cx="801.74" cy="76.8" rx="9.43" ry="9.56"/><ellipse class="cls-2" cx="801.74" cy="76.8" rx="3.14" ry="3.19"/><ellipse class="cls-2" cx="771.69" cy="107.25" rx="10.13" ry="10.27"/><ellipse class="cls-3" cx="771.69" cy="107.25" rx="9.43" ry="9.56"/><ellipse class="cls-2" cx="771.69" cy="107.25" rx="3.14" ry="3.19"/><ellipse class="cls-2" cx="801.74" cy="107.25" rx="10.13" ry="10.27"/><ellipse class="cls-3" cx="801.74" cy="107.25" rx="9.43" ry="9.56"/><ellipse class="cls-2" cx="801.74" cy="107.25" rx="3.14" ry="3.19"/><rect class="cls-2" x="780.43" y="86.36" width="11.88" height="12.04"/><polygon class="cls-2" points="781.73 89.47 770.37 77.95 772.84 75.45 784.2 86.97 781.73 89.47"/><polygon class="cls-2" points="781.73 94.58 770.37 106.1 772.84 108.6 784.2 97.08 781.73 94.58"/><polygon class="cls-2" points="791.71 89.47 803.07 77.95 800.6 75.45 789.24 86.97 791.71 89.47"/><polygon class="cls-2" points="791.71 94.58 803.07 106.1 800.6 108.6 789.24 97.08 791.71 94.58"/><ellipse class="cls-2" cx="771.69" cy="17.8" rx="10.13" ry="10.27"/><ellipse class="cls-3" cx="771.69" cy="17.8" rx="9.43" ry="9.56"/><ellipse class="cls-2" cx="771.69" cy="17.8" rx="3.14" ry="3.19"/><ellipse class="cls-2" cx="801.74" cy="17.8" rx="10.13" ry="10.27"/><ellipse class="cls-3" cx="801.74" cy="17.8" rx="9.43" ry="9.56"/><ellipse class="cls-2" cx="801.74" cy="17.8" rx="3.14" ry="3.19"/><ellipse class="cls-2" cx="771.69" cy="48.25" rx="10.13" ry="10.27"/><ellipse class="cls-3" cx="771.69" cy="48.25" rx="9.43" ry="9.56"/><ellipse class="cls-2" cx="771.69" cy="48.25" rx="3.14" ry="3.19"/><ellipse class="cls-2" cx="801.74" cy="48.25" rx="10.13" ry="10.27"/><ellipse class="cls-3" cx="801.74" cy="48.25" rx="9.43" ry="9.56"/><ellipse class="cls-2" cx="801.74" cy="48.25" rx="3.14" ry="3.19"/><rect class="cls-2" x="780.43" y="27.36" width="11.88" height="12.04"/><polygon class="cls-2" points="781.73 30.48 770.37 18.95 772.84 16.45 784.2 27.97 781.73 30.48"/><polygon class="cls-2" points="781.73 35.58 770.37 47.1 772.84 49.6 784.2 38.08 781.73 35.58"/><polygon class="cls-2" points="791.71 30.48 803.07 18.95 800.6 16.45 789.24 27.97 791.71 30.48"/><polygon class="cls-2" points="791.71 35.58 803.07 47.1 800.6 49.6 789.24 38.08 791.71 35.58"/><ellipse class="cls-2" cx="713.49" cy="76.8" rx="10.13" ry="10.27"/><ellipse class="cls-3" cx="713.49" cy="76.8" rx="9.43" ry="9.56"/><ellipse class="cls-2" cx="713.49" cy="76.8" rx="3.14" ry="3.19"/><ellipse class="cls-2" cx="743.54" cy="76.8" rx="10.13" ry="10.27"/><ellipse class="cls-3" cx="743.54" cy="76.8" rx="9.43" ry="9.56"/><ellipse class="cls-2" cx="743.54" cy="76.8" rx="3.14" ry="3.19"/><ellipse class="cls-2" cx="713.49" cy="107.25" rx="10.13" ry="10.27"/><ellipse class="cls-3" cx="713.49" cy="107.25" rx="9.43" ry="9.56"/><ellipse class="cls-2" cx="713.49" cy="107.25" rx="3.14" ry="3.19"/><ellipse class="cls-2" cx="743.54" cy="107.25" rx="10.13" ry="10.27"/><ellipse class="cls-3" cx="743.54" cy="107.25" rx="9.43" ry="9.56"/><ellipse class="cls-2" cx="743.54" cy="107.25" rx="3.14" ry="3.19"/><rect class="cls-2" x="722.22" y="86.36" width="11.88" height="12.04"/><polygon class="cls-2" points="723.52 89.47 712.16 77.95 714.63 75.45 726 86.97 723.52 89.47"/><polygon class="cls-2" points="723.52 94.58 712.16 106.1 714.63 108.6 726 97.08 723.52 94.58"/><polygon class="cls-2" points="733.5 89.47 744.86 77.95 742.39 75.45 731.03 86.97 733.5 89.47"/><polygon class="cls-2" points="733.5 94.58 744.86 106.1 742.39 108.6 731.03 97.08 733.5 94.58"/><ellipse class="cls-2" cx="713.49" cy="17.8" rx="10.13" ry="10.27"/><ellipse class="cls-3" cx="713.49" cy="17.8" rx="9.43" ry="9.56"/><ellipse class="cls-2" cx="713.49" cy="17.8" rx="3.14" ry="3.19"/><ellipse class="cls-2" cx="743.54" cy="17.8" rx="10.13" ry="10.27"/><ellipse class="cls-3" cx="743.54" cy="17.8" rx="9.43" ry="9.56"/><ellipse class="cls-2" cx="743.54" cy="17.8" rx="3.14" ry="3.19"/><ellipse class="cls-2" cx="713.49" cy="48.25" rx="10.13" ry="10.27"/><ellipse class="cls-3" cx="713.49" cy="48.25" rx="9.43" ry="9.56"/><ellipse class="cls-2" cx="713.49" cy="48.25" rx="3.14" ry="3.19"/><ellipse class="cls-2" cx="743.54" cy="48.25" rx="10.13" ry="10.27"/><ellipse class="cls-3" cx="743.54" cy="48.25" rx="9.43" ry="9.56"/><ellipse class="cls-2" cx="743.54" cy="48.25" rx="3.14" ry="3.19"/><rect class="cls-2" x="722.22" y="27.36" width="11.88" height="12.04"/><polygon class="cls-2" points="723.52 30.48 712.16 18.95 714.63 16.45 726 27.97 723.52 30.48"/><polygon class="cls-2" points="723.52 35.58 712.16 47.1 714.63 49.6 726 38.08 723.52 35.58"/><polygon class="cls-2" points="733.5 30.48 744.86 18.95 742.39 16.45 731.03 27.97 733.5 30.48"/><polygon class="cls-2" points="733.5 35.58 744.86 47.1 742.39 49.6 731.03 38.08 733.5 35.58"/><ellipse class="cls-2" cx="655.28" cy="76.8" rx="10.13" ry="10.27"/><ellipse class="cls-3" cx="655.28" cy="76.8" rx="9.43" ry="9.56"/><ellipse class="cls-2" cx="655.28" cy="76.8" rx="3.14" ry="3.19"/><ellipse class="cls-2" cx="685.33" cy="76.8" rx="10.13" ry="10.27"/><ellipse class="cls-3" cx="685.33" cy="76.8" rx="9.43" ry="9.56"/><ellipse class="cls-2" cx="685.33" cy="76.8" rx="3.14" ry="3.19"/><ellipse class="cls-2" cx="655.28" cy="107.25" rx="10.13" ry="10.27"/><ellipse class="cls-3" cx="655.28" cy="107.25" rx="9.43" ry="9.56"/><ellipse class="cls-2" cx="655.28" cy="107.25" rx="3.14" ry="3.19"/><ellipse class="cls-2" cx="685.33" cy="107.25" rx="10.13" ry="10.27"/><ellipse class="cls-3" cx="685.33" cy="107.25" rx="9.43" ry="9.56"/><ellipse class="cls-2" cx="685.33" cy="107.25" rx="3.14" ry="3.19"/><rect class="cls-2" x="664.02" y="86.36" width="11.88" height="12.04"/><polygon class="cls-2" points="665.32 89.47 653.95 77.95 656.42 75.45 667.79 86.97 665.32 89.47"/><polygon class="cls-2" points="665.32 94.58 653.95 106.1 656.42 108.6 667.79 97.08 665.32 94.58"/><polygon class="cls-2" points="675.29 89.47 686.66 77.95 684.19 75.45 672.82 86.97 675.29 89.47"/><polygon class="cls-2" points="675.29 94.58 686.66 106.1 684.19 108.6 672.82 97.08 675.29 94.58"/><ellipse class="cls-2" cx="655.28" cy="17.8" rx="10.13" ry="10.27"/><ellipse class="cls-3" cx="655.28" cy="17.8" rx="9.43" ry="9.56"/><ellipse class="cls-2" cx="655.28" cy="17.8" rx="3.14" ry="3.19"/><ellipse class="cls-2" cx="685.33" cy="17.8" rx="10.13" ry="10.27"/><ellipse class="cls-3" cx="685.33" cy="17.8" rx="9.43" ry="9.56"/><ellipse class="cls-2" cx="685.33" cy="17.8" rx="3.14" ry="3.19"/><ellipse class="cls-2" cx="655.28" cy="48.25" rx="10.13" ry="10.27"/><ellipse class="cls-3" cx="655.28" cy="48.25" rx="9.43" ry="9.56"/><ellipse class="cls-2" cx="655.28" cy="48.25" rx="3.14" ry="3.19"/><ellipse class="cls-2" cx="685.33" cy="48.25" rx="10.13" ry="10.27"/><ellipse class="cls-3" cx="685.33" cy="48.25" rx="9.43" ry="9.56"/><ellipse class="cls-2" cx="685.33" cy="48.25" rx="3.14" ry="3.19"/><rect class="cls-2" x="664.02" y="27.36" width="11.88" height="12.04"/><polygon class="cls-2" points="665.32 30.48 653.95 18.95 656.42 16.45 667.79 27.97 665.32 30.48"/><polygon class="cls-2" points="665.32 35.58 653.95 47.1 656.42 49.6 667.79 38.08 665.32 35.58"/><polygon class="cls-2" points="675.29 30.48 686.66 18.95 684.19 16.45 672.82 27.97 675.29 30.48"/><polygon class="cls-2" points="675.29 35.58 686.66 47.1 684.19 49.6 672.82 38.08 675.29 35.58"/><ellipse class="cls-2" cx="597.07" cy="76.8" rx="10.13" ry="10.27"/><ellipse class="cls-3" cx="597.07" cy="76.8" rx="9.43" ry="9.56"/><ellipse class="cls-2" cx="597.07" cy="76.8" rx="3.14" ry="3.19"/><ellipse class="cls-2" cx="627.12" cy="76.8" rx="10.13" ry="10.27"/><ellipse class="cls-3" cx="627.12" cy="76.8" rx="9.43" ry="9.56"/><ellipse class="cls-2" cx="627.12" cy="76.8" rx="3.14" ry="3.19"/><ellipse class="cls-2" cx="597.07" cy="107.25" rx="10.13" ry="10.27"/><ellipse class="cls-3" cx="597.07" cy="107.25" rx="9.43" ry="9.56"/><ellipse class="cls-2" cx="597.07" cy="107.25" rx="3.14" ry="3.19"/><ellipse class="cls-2" cx="627.12" cy="107.25" rx="10.13" ry="10.27"/><ellipse class="cls-3" cx="627.12" cy="107.25" rx="9.43" ry="9.56"/><ellipse class="cls-2" cx="627.12" cy="107.25" rx="3.14" ry="3.19"/><rect class="cls-2" x="605.81" y="86.36" width="11.88" height="12.04"/><polygon class="cls-2" points="607.11 89.47 595.75 77.95 598.22 75.45 609.58 86.97 607.11 89.47"/><polygon class="cls-2" points="607.11 94.58 595.75 106.1 598.22 108.6 609.58 97.08 607.11 94.58"/><polygon class="cls-2" points="617.09 89.47 628.45 77.95 625.98 75.45 614.62 86.97 617.09 89.47"/><polygon class="cls-2" points="617.09 94.58 628.45 106.1 625.98 108.6 614.62 97.08 617.09 94.58"/><ellipse class="cls-2" cx="597.07" cy="17.8" rx="10.13" ry="10.27"/><ellipse class="cls-3" cx="597.07" cy="17.8" rx="9.43" ry="9.56"/><ellipse class="cls-2" cx="597.07" cy="17.8" rx="3.14" ry="3.19"/><ellipse class="cls-2" cx="627.12" cy="17.8" rx="10.13" ry="10.27"/><ellipse class="cls-3" cx="627.12" cy="17.8" rx="9.43" ry="9.56"/><ellipse class="cls-2" cx="627.12" cy="17.8" rx="3.14" ry="3.19"/><ellipse class="cls-2" cx="597.07" cy="48.25" rx="10.13" ry="10.27"/><ellipse class="cls-3" cx="597.07" cy="48.25" rx="9.43" ry="9.56"/><ellipse class="cls-2" cx="597.07" cy="48.25" rx="3.14" ry="3.19"/><ellipse class="cls-2" cx="627.12" cy="48.25" rx="10.13" ry="10.27"/><ellipse class="cls-3" cx="627.12" cy="48.25" rx="9.43" ry="9.56"/><ellipse class="cls-2" cx="627.12" cy="48.25" rx="3.14" ry="3.19"/><rect class="cls-2" x="605.81" y="27.36" width="11.88" height="12.04"/><polygon class="cls-2" points="607.11 30.48 595.75 18.95 598.22 16.45 609.58 27.97 607.11 30.48"/><polygon class="cls-2" points="607.11 35.58 595.75 47.1 598.22 49.6 609.58 38.08 607.11 35.58"/><polygon class="cls-2" points="617.09 30.48 628.45 18.95 625.98 16.45 614.62 27.97 617.09 30.48"/><polygon class="cls-2" points="617.09 35.58 628.45 47.1 625.98 49.6 614.62 38.08 617.09 35.58"/><ellipse class="cls-2" cx="538.87" cy="76.8" rx="10.13" ry="10.27"/><ellipse class="cls-3" cx="538.87" cy="76.8" rx="9.43" ry="9.56"/><ellipse class="cls-2" cx="538.87" cy="76.8" rx="3.14" ry="3.19"/><ellipse class="cls-2" cx="568.92" cy="76.8" rx="10.13" ry="10.27"/><ellipse class="cls-3" cx="568.92" cy="76.8" rx="9.43" ry="9.56"/><ellipse class="cls-2" cx="568.92" cy="76.8" rx="3.14" ry="3.19"/><ellipse class="cls-2" cx="538.87" cy="107.25" rx="10.13" ry="10.27"/><ellipse class="cls-3" cx="538.87" cy="107.25" rx="9.43" ry="9.56"/><ellipse class="cls-2" cx="538.87" cy="107.25" rx="3.14" ry="3.19"/><ellipse class="cls-2" cx="568.92" cy="107.25" rx="10.13" ry="10.27"/><ellipse class="cls-3" cx="568.92" cy="107.25" rx="9.43" ry="9.56"/><ellipse class="cls-2" cx="568.92" cy="107.25" rx="3.14" ry="3.19"/><rect class="cls-2" x="547.6" y="86.36" width="11.88" height="12.04"/><polygon class="cls-2" points="548.9 89.47 537.54 77.95 540.01 75.45 551.38 86.97 548.9 89.47"/><polygon class="cls-2" points="548.9 94.58 537.54 106.1 540.01 108.6 551.38 97.08 548.9 94.58"/><polygon class="cls-2" points="558.88 89.47 570.24 77.95 567.77 75.45 556.41 86.97 558.88 89.47"/><polygon class="cls-2" points="558.88 94.58 570.24 106.1 567.77 108.6 556.41 97.08 558.88 94.58"/><ellipse class="cls-2" cx="538.87" cy="17.8" rx="10.13" ry="10.27"/><ellipse class="cls-3" cx="538.87" cy="17.8" rx="9.43" ry="9.56"/><ellipse class="cls-2" cx="538.87" cy="17.8" rx="3.14" ry="3.19"/><ellipse class="cls-2" cx="568.92" cy="17.8" rx="10.13" ry="10.27"/><ellipse class="cls-3" cx="568.92" cy="17.8" rx="9.43" ry="9.56"/><ellipse class="cls-2" cx="568.92" cy="17.8" rx="3.14" ry="3.19"/><ellipse class="cls-2" cx="538.87" cy="48.25" rx="10.13" ry="10.27"/><ellipse class="cls-3" cx="538.87" cy="48.25" rx="9.43" ry="9.56"/><ellipse class="cls-2" cx="538.87" cy="48.25" rx="3.14" ry="3.19"/><ellipse class="cls-2" cx="568.92" cy="48.25" rx="10.13" ry="10.27"/><ellipse class="cls-3" cx="568.92" cy="48.25" rx="9.43" ry="9.56"/><ellipse class="cls-2" cx="568.92" cy="48.25" rx="3.14" ry="3.19"/><rect class="cls-2" x="547.6" y="27.36" width="11.88" height="12.04"/><polygon class="cls-2" points="548.9 30.48 537.54 18.95 540.01 16.45 551.38 27.97 548.9 30.48"/><polygon class="cls-2" points="548.9 35.58 537.54 47.1 540.01 49.6 551.38 38.08 548.9 35.58"/><polygon class="cls-2" points="558.88 30.48 570.24 18.95 567.77 16.45 556.41 27.97 558.88 30.48"/><polygon class="cls-2" points="558.88 35.58 570.24 47.1 567.77 49.6 556.41 38.08 558.88 35.58"/><ellipse class="cls-2" cx="480.66" cy="76.8" rx="10.13" ry="10.27"/><ellipse class="cls-3" cx="480.66" cy="76.8" rx="9.43" ry="9.56"/><ellipse class="cls-2" cx="480.66" cy="76.8" rx="3.14" ry="3.19"/><ellipse class="cls-2" cx="510.71" cy="76.8" rx="10.13" ry="10.27"/><ellipse class="cls-3" cx="510.71" cy="76.8" rx="9.43" ry="9.56"/><ellipse class="cls-2" cx="510.71" cy="76.8" rx="3.14" ry="3.19"/><ellipse class="cls-2" cx="480.66" cy="107.25" rx="10.13" ry="10.27"/><ellipse class="cls-3" cx="480.66" cy="107.25" rx="9.43" ry="9.56"/><ellipse class="cls-2" cx="480.66" cy="107.25" rx="3.14" ry="3.19"/><ellipse class="cls-2" cx="510.71" cy="107.25" rx="10.13" ry="10.27"/><ellipse class="cls-3" cx="510.71" cy="107.25" rx="9.43" ry="9.56"/><ellipse class="cls-2" cx="510.71" cy="107.25" rx="3.14" ry="3.19"/><rect class="cls-2" x="489.4" y="86.36" width="11.88" height="12.04"/><polygon class="cls-2" points="490.7 89.47 479.33 77.95 481.8 75.45 493.17 86.97 490.7 89.47"/><polygon class="cls-2" points="490.7 94.58 479.33 106.1 481.8 108.6 493.17 97.08 490.7 94.58"/><polygon class="cls-2" points="500.67 89.47 512.04 77.95 509.57 75.45 498.2 86.97 500.67 89.47"/><polygon class="cls-2" points="500.67 94.58 512.04 106.1 509.57 108.6 498.2 97.08 500.67 94.58"/><ellipse class="cls-2" cx="480.66" cy="17.8" rx="10.13" ry="10.27"/><ellipse class="cls-3" cx="480.66" cy="17.8" rx="9.43" ry="9.56"/><ellipse class="cls-2" cx="480.66" cy="17.8" rx="3.14" ry="3.19"/><ellipse class="cls-2" cx="510.71" cy="17.8" rx="10.13" ry="10.27"/><ellipse class="cls-3" cx="510.71" cy="17.8" rx="9.43" ry="9.56"/><ellipse class="cls-2" cx="510.71" cy="17.8" rx="3.14" ry="3.19"/><ellipse class="cls-2" cx="480.66" cy="48.25" rx="10.13" ry="10.27"/><ellipse class="cls-3" cx="480.66" cy="48.25" rx="9.43" ry="9.56"/><ellipse class="cls-2" cx="480.66" cy="48.25" rx="3.14" ry="3.19"/><ellipse class="cls-2" cx="510.71" cy="48.25" rx="10.13" ry="10.27"/><ellipse class="cls-3" cx="510.71" cy="48.25" rx="9.43" ry="9.56"/><ellipse class="cls-2" cx="510.71" cy="48.25" rx="3.14" ry="3.19"/><rect class="cls-2" x="489.4" y="27.36" width="11.88" height="12.04"/><polygon class="cls-2" points="490.7 30.48 479.33 18.95 481.8 16.45 493.17 27.97 490.7 30.48"/><polygon class="cls-2" points="490.7 35.58 479.33 47.1 481.8 49.6 493.17 38.08 490.7 35.58"/><polygon class="cls-2" points="500.67 30.48 512.04 18.95 509.57 16.45 498.2 27.97 500.67 30.48"/><polygon class="cls-2" points="500.67 35.58 512.04 47.1 509.57 49.6 498.2 38.08 500.67 35.58"/><ellipse class="cls-2" cx="422.45" cy="76.8" rx="10.13" ry="10.27"/><ellipse class="cls-3" cx="422.45" cy="76.8" rx="9.43" ry="9.56"/><ellipse class="cls-2" cx="422.45" cy="76.8" rx="3.14" ry="3.19"/><ellipse class="cls-2" cx="452.5" cy="76.8" rx="10.13" ry="10.27"/><ellipse class="cls-3" cx="452.5" cy="76.8" rx="9.43" ry="9.56"/><ellipse class="cls-2" cx="452.5" cy="76.8" rx="3.14" ry="3.19"/><ellipse class="cls-2" cx="422.45" cy="107.25" rx="10.13" ry="10.27"/><ellipse class="cls-3" cx="422.45" cy="107.25" rx="9.43" ry="9.56"/><ellipse class="cls-2" cx="422.45" cy="107.25" rx="3.14" ry="3.19"/><path class="cls-2" d="M452.5,117.53a10.28,10.28,0,1,1,10.14-10.42v.14a10.21,10.21,0,0,1-10.14,10.28h0"/><path class="cls-3" d="M452.5,116.82a9.57,9.57,0,1,0-9.43-9.71v.14a9.5,9.5,0,0,0,9.43,9.57h0"/><path class="cls-2" d="M452.5,110.44a3.19,3.19,0,1,1,3.15-3.23v0a3.15,3.15,0,0,1-3.13,3.19h0"/><rect class="cls-2" x="431.19" y="86.36" width="11.88" height="12.04"/><polygon class="cls-2" points="432.49 89.47 421.13 77.95 423.6 75.45 434.96 86.97 432.49 89.47"/><polygon class="cls-2" points="432.49 94.58 421.13 106.1 423.6 108.6 434.96 97.08 432.49 94.58"/><polygon class="cls-2" points="442.47 89.47 453.83 77.95 451.36 75.45 440 86.97 442.47 89.47"/><polygon class="cls-2" points="442.47 94.58 453.83 106.1 451.36 108.6 440 97.08 442.47 94.58"/><ellipse class="cls-2" cx="422.45" cy="17.8" rx="10.13" ry="10.27"/><ellipse class="cls-3" cx="422.45" cy="17.8" rx="9.43" ry="9.56"/><ellipse class="cls-2" cx="422.45" cy="17.8" rx="3.14" ry="3.19"/><ellipse class="cls-2" cx="452.5" cy="17.8" rx="10.13" ry="10.27"/><ellipse class="cls-3" cx="452.5" cy="17.8" rx="9.43" ry="9.56"/><ellipse class="cls-2" cx="452.5" cy="17.8" rx="3.14" ry="3.19"/><ellipse class="cls-2" cx="422.45" cy="48.25" rx="10.13" ry="10.27"/><ellipse class="cls-3" cx="422.45" cy="48.25" rx="9.43" ry="9.56"/><ellipse class="cls-2" cx="422.45" cy="48.25" rx="3.14" ry="3.19"/><ellipse class="cls-2" cx="452.5" cy="48.25" rx="10.13" ry="10.27"/><ellipse class="cls-3" cx="452.5" cy="48.25" rx="9.43" ry="9.56"/><ellipse class="cls-2" cx="452.5" cy="48.25" rx="3.14" ry="3.19"/><rect class="cls-2" x="431.19" y="27.36" width="11.88" height="12.04"/><polygon class="cls-2" points="432.49 30.48 421.13 18.95 423.6 16.45 434.96 27.97 432.49 30.48"/><polygon class="cls-2" points="432.49 35.58 421.13 47.1 423.6 49.6 434.96 38.08 432.49 35.58"/><polygon class="cls-2" points="442.47 30.48 453.83 18.95 451.36 16.45 440 27.97 442.47 30.48"/><polygon class="cls-2" points="442.47 35.58 453.83 47.1 451.36 49.6 440 38.08 442.47 35.58"/><ellipse class="cls-2" cx="364.25" cy="76.8" rx="10.13" ry="10.27"/><ellipse class="cls-3" cx="364.25" cy="76.8" rx="9.43" ry="9.56"/><ellipse class="cls-2" cx="364.25" cy="76.8" rx="3.14" ry="3.19"/><ellipse class="cls-2" cx="394.3" cy="76.8" rx="10.13" ry="10.27"/><ellipse class="cls-3" cx="394.3" cy="76.8" rx="9.43" ry="9.56"/><ellipse class="cls-2" cx="394.3" cy="76.8" rx="3.14" ry="3.19"/><ellipse class="cls-2" cx="364.25" cy="107.25" rx="10.13" ry="10.27"/><ellipse class="cls-3" cx="364.25" cy="107.25" rx="9.43" ry="9.56"/><ellipse class="cls-2" cx="364.25" cy="107.25" rx="3.14" ry="3.19"/><ellipse class="cls-2" cx="394.3" cy="107.25" rx="10.13" ry="10.27"/><ellipse class="cls-3" cx="394.3" cy="107.25" rx="9.43" ry="9.56"/><ellipse class="cls-2" cx="394.3" cy="107.25" rx="3.14" ry="3.19"/><rect class="cls-2" x="372.98" y="86.36" width="11.88" height="12.04"/><polygon class="cls-2" points="374.29 89.47 362.92 77.95 365.39 75.45 376.76 86.97 374.29 89.47"/><polygon class="cls-2" points="374.29 94.58 362.92 106.1 365.39 108.6 376.76 97.08 374.29 94.58"/><polygon class="cls-2" points="384.26 89.47 395.62 77.95 393.15 75.45 381.79 86.97 384.26 89.47"/><polygon class="cls-2" points="384.26 94.58 395.62 106.1 393.15 108.6 381.79 97.08 384.26 94.58"/><ellipse class="cls-2" cx="364.25" cy="17.8" rx="10.13" ry="10.27"/><ellipse class="cls-3" cx="364.25" cy="17.8" rx="9.43" ry="9.56"/><ellipse class="cls-2" cx="364.25" cy="17.8" rx="3.14" ry="3.19"/><ellipse class="cls-2" cx="394.3" cy="17.8" rx="10.13" ry="10.27"/><ellipse class="cls-3" cx="394.3" cy="17.8" rx="9.43" ry="9.56"/><ellipse class="cls-2" cx="394.3" cy="17.8" rx="3.14" ry="3.19"/><ellipse class="cls-2" cx="364.25" cy="48.25" rx="10.13" ry="10.27"/><ellipse class="cls-3" cx="364.25" cy="48.25" rx="9.43" ry="9.56"/><ellipse class="cls-2" cx="364.25" cy="48.25" rx="3.14" ry="3.19"/><ellipse class="cls-2" cx="394.3" cy="48.25" rx="10.13" ry="10.27"/><ellipse class="cls-3" cx="394.3" cy="48.25" rx="9.43" ry="9.56"/><ellipse class="cls-2" cx="394.3" cy="48.25" rx="3.14" ry="3.19"/><rect class="cls-2" x="372.98" y="27.36" width="11.88" height="12.04"/><polygon class="cls-2" points="374.29 30.48 362.92 18.95 365.39 16.45 376.76 27.97 374.29 30.48"/><polygon class="cls-2" points="374.29 35.58 362.92 47.1 365.39 49.6 376.76 38.08 374.29 35.58"/><polygon class="cls-2" points="384.26 30.48 395.62 18.95 393.15 16.45 381.79 27.97 384.26 30.48"/><polygon class="cls-2" points="384.26 35.58 395.62 47.1 393.15 49.6 381.79 38.08 384.26 35.58"/><ellipse class="cls-2" cx="306.04" cy="76.8" rx="10.13" ry="10.27"/><ellipse class="cls-3" cx="306.04" cy="76.8" rx="9.43" ry="9.56"/><ellipse class="cls-2" cx="306.04" cy="76.8" rx="3.14" ry="3.19"/><ellipse class="cls-2" cx="336.09" cy="76.8" rx="10.13" ry="10.27"/><ellipse class="cls-3" cx="336.09" cy="76.8" rx="9.43" ry="9.56"/><ellipse class="cls-2" cx="336.09" cy="76.8" rx="3.14" ry="3.19"/><ellipse class="cls-2" cx="306.04" cy="107.25" rx="10.13" ry="10.27"/><ellipse class="cls-3" cx="306.04" cy="107.25" rx="9.43" ry="9.56"/><ellipse class="cls-2" cx="306.04" cy="107.25" rx="3.14" ry="3.19"/><ellipse class="cls-2" cx="336.09" cy="107.25" rx="10.13" ry="10.27"/><ellipse class="cls-3" cx="336.09" cy="107.25" rx="9.43" ry="9.56"/><ellipse class="cls-2" cx="336.09" cy="107.25" rx="3.14" ry="3.19"/><rect class="cls-2" x="314.78" y="86.36" width="11.88" height="12.04"/><polygon class="cls-2" points="316.08 89.47 304.71 77.95 307.19 75.45 318.55 86.97 316.08 89.47"/><polygon class="cls-2" points="316.08 94.58 304.71 106.1 307.19 108.6 318.55 97.08 316.08 94.58"/><polygon class="cls-2" points="326.05 89.47 337.42 77.95 334.95 75.45 323.58 86.97 326.05 89.47"/><polygon class="cls-2" points="326.05 94.58 337.42 106.1 334.95 108.6 323.58 97.08 326.05 94.58"/><ellipse class="cls-2" cx="306.04" cy="17.8" rx="10.13" ry="10.27"/><ellipse class="cls-3" cx="306.04" cy="17.8" rx="9.43" ry="9.56"/><ellipse class="cls-2" cx="306.04" cy="17.8" rx="3.14" ry="3.19"/><ellipse class="cls-2" cx="336.09" cy="17.8" rx="10.13" ry="10.27"/><ellipse class="cls-3" cx="336.09" cy="17.8" rx="9.43" ry="9.56"/><ellipse class="cls-2" cx="336.09" cy="17.8" rx="3.14" ry="3.19"/><ellipse class="cls-2" cx="306.04" cy="48.25" rx="10.13" ry="10.27"/><ellipse class="cls-3" cx="306.04" cy="48.25" rx="9.43" ry="9.56"/><ellipse class="cls-2" cx="306.04" cy="48.25" rx="3.14" ry="3.19"/><ellipse class="cls-2" cx="336.09" cy="48.25" rx="10.13" ry="10.27"/><ellipse class="cls-3" cx="336.09" cy="48.25" rx="9.43" ry="9.56"/><ellipse class="cls-2" cx="336.09" cy="48.25" rx="3.14" ry="3.19"/><rect class="cls-2" x="314.78" y="27.36" width="11.88" height="12.04"/><polygon class="cls-2" points="316.08 30.48 304.71 18.95 307.19 16.45 318.55 27.97 316.08 30.48"/><polygon class="cls-2" points="316.08 35.58 304.71 47.1 307.19 49.6 318.55 38.08 316.08 35.58"/><polygon class="cls-2" points="326.05 30.48 337.42 18.95 334.95 16.45 323.58 27.97 326.05 30.48"/><polygon class="cls-2" points="326.05 35.58 337.42 47.1 334.95 49.6 323.58 38.08 326.05 35.58"/><ellipse class="cls-2" cx="247.83" cy="76.8" rx="10.13" ry="10.27"/><ellipse class="cls-3" cx="247.83" cy="76.8" rx="9.43" ry="9.56"/><ellipse class="cls-2" cx="247.83" cy="76.8" rx="3.14" ry="3.19"/><ellipse class="cls-2" cx="277.88" cy="76.8" rx="10.13" ry="10.27"/><ellipse class="cls-3" cx="277.88" cy="76.8" rx="9.43" ry="9.56"/><ellipse class="cls-2" cx="277.88" cy="76.8" rx="3.14" ry="3.19"/><ellipse class="cls-2" cx="247.83" cy="107.25" rx="10.13" ry="10.27"/><ellipse class="cls-3" cx="247.83" cy="107.25" rx="9.43" ry="9.56"/><ellipse class="cls-2" cx="247.83" cy="107.25" rx="3.14" ry="3.19"/><ellipse class="cls-2" cx="277.88" cy="107.25" rx="10.13" ry="10.27"/><ellipse class="cls-3" cx="277.88" cy="107.25" rx="9.43" ry="9.56"/><ellipse class="cls-2" cx="277.88" cy="107.25" rx="3.14" ry="3.19"/><rect class="cls-2" x="256.57" y="86.36" width="11.88" height="12.04"/><polygon class="cls-2" points="257.87 89.47 246.51 77.95 248.98 75.45 260.34 86.97 257.87 89.47"/><polygon class="cls-2" points="257.87 94.58 246.51 106.1 248.98 108.6 260.34 97.08 257.87 94.58"/><polygon class="cls-2" points="267.85 89.47 279.21 77.95 276.74 75.45 265.38 86.97 267.85 89.47"/><polygon class="cls-2" points="267.85 94.58 279.21 106.1 276.74 108.6 265.38 97.08 267.85 94.58"/><ellipse class="cls-2" cx="247.83" cy="17.8" rx="10.13" ry="10.27"/><ellipse class="cls-3" cx="247.83" cy="17.8" rx="9.43" ry="9.56"/><ellipse class="cls-2" cx="247.83" cy="17.8" rx="3.14" ry="3.19"/><ellipse class="cls-2" cx="277.88" cy="17.8" rx="10.13" ry="10.27"/><ellipse class="cls-3" cx="277.88" cy="17.8" rx="9.43" ry="9.56"/><ellipse class="cls-2" cx="277.88" cy="17.8" rx="3.14" ry="3.19"/><ellipse class="cls-2" cx="247.83" cy="48.25" rx="10.13" ry="10.27"/><ellipse class="cls-3" cx="247.83" cy="48.25" rx="9.43" ry="9.56"/><ellipse class="cls-2" cx="247.83" cy="48.25" rx="3.14" ry="3.19"/><ellipse class="cls-2" cx="277.88" cy="48.25" rx="10.13" ry="10.27"/><ellipse class="cls-3" cx="277.88" cy="48.25" rx="9.43" ry="9.56"/><ellipse class="cls-2" cx="277.88" cy="48.25" rx="3.14" ry="3.19"/><rect class="cls-2" x="256.57" y="27.36" width="11.88" height="12.04"/><polygon class="cls-2" points="257.87 30.48 246.51 18.95 248.98 16.45 260.34 27.97 257.87 30.48"/><polygon class="cls-2" points="257.87 35.58 246.51 47.1 248.98 49.6 260.34 38.08 257.87 35.58"/><polygon class="cls-2" points="267.85 30.48 279.21 18.95 276.74 16.45 265.38 27.97 267.85 30.48"/><polygon class="cls-2" points="267.85 35.58 279.21 47.1 276.74 49.6 265.38 38.08 267.85 35.58"/><ellipse class="cls-2" cx="189.63" cy="76.8" rx="10.13" ry="10.27"/><ellipse class="cls-3" cx="189.63" cy="76.8" rx="9.43" ry="9.56"/><ellipse class="cls-2" cx="189.63" cy="76.8" rx="3.14" ry="3.19"/><ellipse class="cls-2" cx="219.68" cy="76.8" rx="10.13" ry="10.27"/><ellipse class="cls-3" cx="219.68" cy="76.8" rx="9.43" ry="9.56"/><ellipse class="cls-2" cx="219.68" cy="76.8" rx="3.14" ry="3.19"/><ellipse class="cls-2" cx="189.63" cy="107.25" rx="10.13" ry="10.27"/><ellipse class="cls-3" cx="189.63" cy="107.25" rx="9.43" ry="9.56"/><ellipse class="cls-2" cx="189.63" cy="107.25" rx="3.14" ry="3.19"/><ellipse class="cls-2" cx="219.68" cy="107.25" rx="10.13" ry="10.27"/><ellipse class="cls-3" cx="219.68" cy="107.25" rx="9.43" ry="9.56"/><ellipse class="cls-2" cx="219.68" cy="107.25" rx="3.14" ry="3.19"/><rect class="cls-2" x="198.36" y="86.36" width="11.88" height="12.04"/><polygon class="cls-2" points="199.67 89.47 188.3 77.95 190.77 75.45 202.14 86.97 199.67 89.47"/><polygon class="cls-2" points="199.67 94.58 188.3 106.1 190.77 108.6 202.14 97.08 199.67 94.58"/><polygon class="cls-2" points="209.64 89.47 221 77.95 218.53 75.45 207.17 86.97 209.64 89.47"/><polygon class="cls-2" points="209.64 94.58 221 106.1 218.53 108.6 207.17 97.08 209.64 94.58"/><ellipse class="cls-2" cx="189.63" cy="17.8" rx="10.13" ry="10.27"/><ellipse class="cls-3" cx="189.63" cy="17.8" rx="9.43" ry="9.56"/><ellipse class="cls-2" cx="189.63" cy="17.8" rx="3.14" ry="3.19"/><ellipse class="cls-2" cx="219.68" cy="17.8" rx="10.13" ry="10.27"/><ellipse class="cls-3" cx="219.68" cy="17.8" rx="9.43" ry="9.56"/><ellipse class="cls-2" cx="219.68" cy="17.8" rx="3.14" ry="3.19"/><ellipse class="cls-2" cx="189.63" cy="48.25" rx="10.13" ry="10.27"/><ellipse class="cls-3" cx="189.63" cy="48.25" rx="9.43" ry="9.56"/><ellipse class="cls-2" cx="189.63" cy="48.25" rx="3.14" ry="3.19"/><ellipse class="cls-2" cx="219.68" cy="48.25" rx="10.13" ry="10.27"/><ellipse class="cls-3" cx="219.68" cy="48.25" rx="9.43" ry="9.56"/><ellipse class="cls-2" cx="219.68" cy="48.25" rx="3.14" ry="3.19"/><rect class="cls-2" x="198.36" y="27.36" width="11.88" height="12.04"/><polygon class="cls-2" points="199.67 30.48 188.3 18.95 190.77 16.45 202.14 27.97 199.67 30.48"/><polygon class="cls-2" points="199.67 35.58 188.3 47.1 190.77 49.6 202.14 38.08 199.67 35.58"/><polygon class="cls-2" points="209.64 30.48 221 18.95 218.53 16.45 207.17 27.97 209.64 30.48"/><polygon class="cls-2" points="209.64 35.58 221 47.1 218.53 49.6 207.17 38.08 209.64 35.58"/><ellipse class="cls-2" cx="131.42" cy="76.8" rx="10.13" ry="10.27"/><ellipse class="cls-3" cx="131.42" cy="76.8" rx="9.43" ry="9.56"/><ellipse class="cls-2" cx="131.42" cy="76.8" rx="3.14" ry="3.19"/><ellipse class="cls-2" cx="161.47" cy="76.8" rx="10.13" ry="10.27"/><ellipse class="cls-3" cx="161.47" cy="76.8" rx="9.43" ry="9.56"/><ellipse class="cls-2" cx="161.47" cy="76.8" rx="3.14" ry="3.19"/><ellipse class="cls-2" cx="131.42" cy="107.25" rx="10.13" ry="10.27"/><ellipse class="cls-3" cx="131.42" cy="107.25" rx="9.43" ry="9.56"/><ellipse class="cls-2" cx="131.42" cy="107.25" rx="3.14" ry="3.19"/><ellipse class="cls-2" cx="161.47" cy="107.25" rx="10.13" ry="10.27"/><ellipse class="cls-3" cx="161.47" cy="107.25" rx="9.43" ry="9.56"/><ellipse class="cls-2" cx="161.47" cy="107.25" rx="3.14" ry="3.19"/><rect class="cls-2" x="140.16" y="86.36" width="11.88" height="12.04"/><polygon class="cls-2" points="141.46 89.47 130.09 77.95 132.56 75.45 143.93 86.97 141.46 89.47"/><polygon class="cls-2" points="141.46 94.58 130.09 106.1 132.56 108.6 143.93 97.08 141.46 94.58"/><polygon class="cls-2" points="151.43 89.47 162.8 77.95 160.33 75.45 148.96 86.97 151.43 89.47"/><polygon class="cls-2" points="151.43 94.58 162.8 106.1 160.33 108.6 148.96 97.08 151.43 94.58"/><ellipse class="cls-2" cx="131.42" cy="17.8" rx="10.13" ry="10.27"/><ellipse class="cls-3" cx="131.42" cy="17.8" rx="9.43" ry="9.56"/><ellipse class="cls-2" cx="131.42" cy="17.8" rx="3.14" ry="3.19"/><ellipse class="cls-2" cx="161.47" cy="17.8" rx="10.13" ry="10.27"/><ellipse class="cls-3" cx="161.47" cy="17.8" rx="9.43" ry="9.56"/><ellipse class="cls-2" cx="161.47" cy="17.8" rx="3.14" ry="3.19"/><ellipse class="cls-2" cx="131.42" cy="48.25" rx="10.13" ry="10.27"/><ellipse class="cls-3" cx="131.42" cy="48.25" rx="9.43" ry="9.56"/><ellipse class="cls-2" cx="131.42" cy="48.25" rx="3.14" ry="3.19"/><ellipse class="cls-2" cx="161.47" cy="48.25" rx="10.13" ry="10.27"/><ellipse class="cls-3" cx="161.47" cy="48.25" rx="9.43" ry="9.56"/><ellipse class="cls-2" cx="161.47" cy="48.25" rx="3.14" ry="3.19"/><rect class="cls-2" x="140.16" y="27.36" width="11.88" height="12.04"/><polygon class="cls-2" points="141.46 30.48 130.09 18.95 132.56 16.45 143.93 27.97 141.46 30.48"/><polygon class="cls-2" points="141.46 35.58 130.09 47.1 132.56 49.6 143.93 38.08 141.46 35.58"/><polygon class="cls-2" points="151.43 30.48 162.8 18.95 160.33 16.45 148.96 27.97 151.43 30.48"/><polygon class="cls-2" points="151.43 35.58 162.8 47.1 160.33 49.6 148.96 38.08 151.43 35.58"/><ellipse class="cls-2" cx="73.21" cy="76.8" rx="10.13" ry="10.27"/><ellipse class="cls-3" cx="73.21" cy="76.8" rx="9.43" ry="9.56"/><ellipse class="cls-2" cx="73.21" cy="76.8" rx="3.14" ry="3.19"/><ellipse class="cls-2" cx="103.26" cy="76.8" rx="10.13" ry="10.27"/><ellipse class="cls-3" cx="103.26" cy="76.8" rx="9.43" ry="9.56"/><ellipse class="cls-2" cx="103.26" cy="76.8" rx="3.14" ry="3.19"/><ellipse class="cls-2" cx="73.21" cy="107.25" rx="10.13" ry="10.27"/><ellipse class="cls-3" cx="73.21" cy="107.25" rx="9.43" ry="9.56"/><ellipse class="cls-2" cx="73.21" cy="107.25" rx="3.14" ry="3.19"/><ellipse class="cls-2" cx="103.26" cy="107.25" rx="10.13" ry="10.27"/><ellipse class="cls-3" cx="103.26" cy="107.25" rx="9.43" ry="9.56"/><ellipse class="cls-2" cx="103.26" cy="107.25" rx="3.14" ry="3.19"/><rect class="cls-2" x="81.95" y="86.36" width="11.88" height="12.04"/><polygon class="cls-2" points="83.25 89.47 71.89 77.95 74.36 75.45 85.72 86.97 83.25 89.47"/><polygon class="cls-2" points="83.25 94.58 71.89 106.1 74.36 108.6 85.72 97.08 83.25 94.58"/><polygon class="cls-2" points="93.23 89.47 104.59 77.95 102.12 75.45 90.75 86.97 93.23 89.47"/><polygon class="cls-2" points="93.23 94.58 104.59 106.1 102.12 108.6 90.75 97.08 93.23 94.58"/><ellipse class="cls-2" cx="73.21" cy="17.8" rx="10.13" ry="10.27"/><ellipse class="cls-3" cx="73.21" cy="17.8" rx="9.43" ry="9.56"/><ellipse class="cls-2" cx="73.21" cy="17.8" rx="3.14" ry="3.19"/><ellipse class="cls-2" cx="103.26" cy="17.8" rx="10.13" ry="10.27"/><ellipse class="cls-3" cx="103.26" cy="17.8" rx="9.43" ry="9.56"/><ellipse class="cls-2" cx="103.26" cy="17.8" rx="3.14" ry="3.19"/><ellipse class="cls-2" cx="73.21" cy="48.25" rx="10.13" ry="10.27"/><ellipse class="cls-3" cx="73.21" cy="48.25" rx="9.43" ry="9.56"/><ellipse class="cls-2" cx="73.21" cy="48.25" rx="3.14" ry="3.19"/><path class="cls-2" d="M113.4,48.25A10.14,10.14,0,1,1,103.26,38,10.14,10.14,0,0,1,113.4,48.25"/><path class="cls-3" d="M112.7,48.25a9.44,9.44,0,1,0-9.44,9.57,9.45,9.45,0,0,0,9.44-9.57h0"/><ellipse class="cls-2" cx="103.26" cy="48.25" rx="3.14" ry="3.19"/><rect class="cls-2" x="81.95" y="27.36" width="11.88" height="12.04"/><polygon class="cls-2" points="83.25 30.48 71.89 18.95 74.36 16.45 85.72 27.97 83.25 30.48"/><polygon class="cls-2" points="83.25 35.58 71.89 47.1 74.36 49.6 85.72 38.08 83.25 35.58"/><polygon class="cls-2" points="93.23 30.48 104.59 18.95 102.12 16.45 90.75 27.97 93.23 30.48"/><polygon class="cls-2" points="93.23 35.58 104.59 47.1 102.12 49.6 90.75 38.08 93.23 35.58"/><ellipse class="cls-2" cx="15.01" cy="76.8" rx="10.13" ry="10.27"/><ellipse class="cls-3" cx="15.01" cy="76.8" rx="9.43" ry="9.56"/><ellipse class="cls-2" cx="15.01" cy="76.8" rx="3.14" ry="3.19"/><ellipse class="cls-2" cx="45.06" cy="76.8" rx="10.13" ry="10.27"/><ellipse class="cls-3" cx="45.06" cy="76.8" rx="9.43" ry="9.56"/><ellipse class="cls-2" cx="45.06" cy="76.8" rx="3.14" ry="3.19"/><ellipse class="cls-2" cx="15.01" cy="107.25" rx="10.13" ry="10.27"/><ellipse class="cls-3" cx="15.01" cy="107.25" rx="9.43" ry="9.56"/><ellipse class="cls-2" cx="15.01" cy="107.25" rx="3.14" ry="3.19"/><ellipse class="cls-2" cx="45.06" cy="107.25" rx="10.13" ry="10.27"/><ellipse class="cls-3" cx="45.06" cy="107.25" rx="9.43" ry="9.56"/><ellipse class="cls-2" cx="45.06" cy="107.25" rx="3.14" ry="3.19"/><rect class="cls-2" x="23.74" y="86.36" width="11.88" height="12.04"/><polygon class="cls-2" points="25.05 89.47 13.68 77.95 16.15 75.45 27.52 86.97 25.05 89.47"/><polygon class="cls-2" points="25.05 94.58 13.68 106.1 16.15 108.6 27.52 97.08 25.05 94.58"/><polygon class="cls-2" points="35.02 89.47 46.38 77.95 43.91 75.45 32.55 86.97 35.02 89.47"/><polygon class="cls-2" points="35.02 94.58 46.38 106.1 43.91 108.6 32.55 97.08 35.02 94.58"/><ellipse class="cls-2" cx="15.01" cy="17.8" rx="10.13" ry="10.27"/><ellipse class="cls-3" cx="15.01" cy="17.8" rx="9.43" ry="9.56"/><ellipse class="cls-2" cx="15.01" cy="17.8" rx="3.14" ry="3.19"/><ellipse class="cls-2" cx="45.06" cy="17.8" rx="10.13" ry="10.27"/><ellipse class="cls-3" cx="45.06" cy="17.8" rx="9.43" ry="9.56"/><ellipse class="cls-2" cx="45.06" cy="17.8" rx="3.14" ry="3.19"/><ellipse class="cls-2" cx="15.01" cy="48.25" rx="10.13" ry="10.27"/><ellipse class="cls-3" cx="15.01" cy="48.25" rx="9.43" ry="9.56"/><ellipse class="cls-2" cx="15.01" cy="48.25" rx="3.14" ry="3.19"/><ellipse class="cls-2" cx="45.06" cy="48.25" rx="10.13" ry="10.27"/><ellipse class="cls-3" cx="45.06" cy="48.25" rx="9.43" ry="9.56"/><ellipse class="cls-2" cx="45.06" cy="48.25" rx="3.14" ry="3.19"/><rect class="cls-2" x="23.74" y="27.36" width="11.88" height="12.04"/><polygon class="cls-2" points="25.05 30.48 13.68 18.95 16.15 16.45 27.52 27.97 25.05 30.48"/><polygon class="cls-2" points="25.05 35.58 13.68 47.1 16.15 49.6 27.52 38.08 25.05 35.58"/><polygon class="cls-2" points="35.02 30.48 46.38 18.95 43.91 16.45 32.55 27.97 35.02 30.48"/><polygon class="cls-2" points="35.02 35.58 46.38 47.1 43.91 49.6 32.55 38.08 35.02 35.58"/></g></g><line class="cls-5" x1="816.88" y1="-0.14" x2="-0.12" y2="123.86"/></svg>
