<svg id="Layer_1" data-name="Layer 1" xmlns="http://www.w3.org/2000/svg" viewBox="0 0 294.43 294.53"><defs><style>.cls-1{fill:#7aa4ef;}</style></defs><title>Artboard 1</title><path class="cls-1" d="M148.14,38.77a107.5,107.5,0,1,0,107.5,107.5A107.5,107.5,0,0,0,148.14,38.77Zm0,184a76.5,76.5,0,1,1,76.5-76.5A76.5,76.5,0,0,1,148.14,222.77Z"/><path class="cls-1" d="M126.89,72.78,85.43,31.32a22,22,0,0,0-31.14,0L32.84,52.78a23.62,23.62,0,0,0,0,33.43L74,127.37A76.62,76.62,0,0,1,126.89,72.78Z"/><path class="cls-1" d="M261.54,207.43l-39.91-39.91A76.63,76.63,0,0,1,167,220.41l40.76,40.76a23.62,23.62,0,0,0,33.43,0l20.31-20.3A23.65,23.65,0,0,0,261.54,207.43Z"/><path class="cls-1" d="M262.54,51.78,242.23,31.47a23.64,23.64,0,0,0-33.43,0L167.91,72.36a76.62,76.62,0,0,1,54,53.52l40.67-40.67A23.64,23.64,0,0,0,262.54,51.78Z"/><path class="cls-1" d="M74.23,166,32.69,207.58a22,22,0,0,0,0,31.14l21.45,21.45a23.64,23.64,0,0,0,33.44,0L127.75,220A76.62,76.62,0,0,1,74.23,166Z"/><path class="cls-1" d="M81.47,108.77H22.13a22,22,0,0,0-22,22v30.35a23.64,23.64,0,0,0,23.64,23.64H82a76.45,76.45,0,0,1-.57-76Z"/><path class="cls-1" d="M271.19,108.77H214.81a76.42,76.42,0,0,1-.58,76h57a23.63,23.63,0,0,0,23.64-23.64V132.41A23.63,23.63,0,0,0,271.19,108.77Z"/><path class="cls-1" d="M185.64,79.6v-58a22,22,0,0,0-22-22H133.28a23.64,23.64,0,0,0-23.64,23.64v57a76.45,76.45,0,0,1,76-.57Z"/><path class="cls-1" d="M109.64,212.37v58.24a23.63,23.63,0,0,0,23.64,23.64H162a23.64,23.64,0,0,0,23.64-23.64V212.94a76.45,76.45,0,0,1-76-.57Z"/></svg>